<svg xmlns="http://www.w3.org/2000/svg" width="48" height="48" viewBox="0 0 48 48"><g transform="translate(-1828 -970)"><circle cx="24" cy="24" r="24" transform="translate(1828 970)" fill="#fff"/><path d="M24,1a23.006,23.006,0,0,0-8.952,44.193,23.006,23.006,0,0,0,17.9-42.386A22.855,22.855,0,0,0,24,1m0-1A24,24,0,1,1,0,24,24,24,0,0,1,24,0Z" transform="translate(1828 970)" fill="#d5d5d5"/><g transform="translate(-4 -3)"><path d="M0,0H16V2H0Z" transform="translate(1848 1003)" fill="#222"/><path d="M3,2A1,1,0,0,0,2,3v7H18V3a1,1,0,0,0-1-1H3M3,0H17a3,3,0,0,1,3,3v9H0V3A3,3,0,0,1,3,0Z" transform="translate(1846 993)" fill="#222"/><rect width="10" height="9" transform="translate(1851 998)" fill="#fff"/><path d="M2,2V7H8V2H2M0,0H10V9H0Z" transform="translate(1851 998)" fill="#222"/><rect width="14" height="8" transform="translate(1849 987)" fill="#fff"/><path d="M2,2V6H12V2H2M0,0H14V8H0Z" transform="translate(1849 987)" fill="#222"/></g></g></svg>